<?xml version="1.0" encoding="UTF-8" standalone="no"?>
<!-- Created with Inkscape (http://www.inkscape.org/) -->

<svg
   version="1.1"
   id="svg824"
   width="320"
   height="320"
   viewBox="0 0 320 320"
   sodipodi:docname="mxkmn_logo_morse.svg"
   inkscape:version="1.2.2 (732a01da63, 2022-12-09)"
   xmlns:inkscape="http://www.inkscape.org/namespaces/inkscape"
   xmlns:sodipodi="http://sodipodi.sourceforge.net/DTD/sodipodi-0.dtd"
   xmlns="http://www.w3.org/2000/svg"
   xmlns:svg="http://www.w3.org/2000/svg">
  <defs
     id="defs828" />
  <sodipodi:namedview
     id="namedview826"
     pagecolor="#ffffff"
     bordercolor="#666666"
     borderopacity="1.0"
     inkscape:pageshadow="2"
     inkscape:pageopacity="0.0"
     inkscape:pagecheckerboard="0"
     showgrid="false"
     inkscape:zoom="2"
     inkscape:cx="116.25"
     inkscape:cy="143.75"
     inkscape:window-width="2256"
     inkscape:window-height="1398"
     inkscape:window-x="-11"
     inkscape:window-y="1609"
     inkscape:window-maximized="1"
     inkscape:current-layer="g830"
     inkscape:showpageshadow="2"
     inkscape:deskcolor="#d1d1d1" />
  <rect width="100%" height="100%" fill="white"/>
  <g
     inkscape:groupmode="layer"
     inkscape:label="Image"
     id="g830">
    <path
       style="fill:#000000;stroke-width:0.32"
       d="M 0,160 V 0 H 160 320 V 160 320 H 160 0 Z m 232.64,76.8 v -16 h -20.48 -20.48 v 16 16 h 20.48 20.48 z m 34.60629,15.05148 c 6.18736,-1.91221 10.4952,-7.33064 11.03595,-13.88108 0.79977,-9.688 -7.38257,-17.87229 -17.05264,-17.05674 -6.5612,0.55336 -11.96951,4.85476 -13.88108,11.04005 -0.75338,2.4377 -0.83876,6.85081 -0.17486,9.03811 1.57776,5.19816 5.69864,9.3822 10.83271,10.9987 2.13264,0.67148 6.84685,0.60055 9.23992,-0.13904 z M 232.64,198.4 v -16 h -20.48 -20.48 v 16 16 h 20.48 20.48 z m 50.24,0 v -16 H 262.4 241.92 v 16 16 h 20.48 20.48 z m -66.19371,-23.02852 c 6.18736,-1.91221 10.4952,-7.33064 11.03595,-13.88108 0.79977,-9.688 -7.38257,-17.87229 -17.05264,-17.05674 -6.5612,0.55336 -11.96951,4.85476 -13.88108,11.04005 -0.75338,2.4377 -0.83876,6.85081 -0.17486,9.03811 1.57776,5.19816 5.69864,9.3822 10.83271,10.9987 2.13264,0.67148 6.84685,0.60055 9.23992,-0.13904 z M 282.88,160 V 144 H 262.4 241.92 v 16 16 h 20.48 20.48 z M 182.4,159.68 v -16 h -20.48 -20.48 v 16 16 h 20.48 20.48 z M 282.88,121.6 v -16 H 262.4 241.92 v 16 16 h 20.48 20.48 z m -150.72,-0.32 v -16 H 111.68 91.200004 v 16 16 H 111.68 132.16 Z m 34.28629,15.37148 c 6.18736,-1.91221 10.4952,-7.33064 11.03595,-13.88108 0.79977,-9.688 -7.38257,-17.87229 -17.05264,-17.05674 -6.5612,0.55336 -11.96951,4.85476 -13.88108,11.04005 -0.75338,2.4377 -0.83876,6.85081 -0.17486,9.03811 1.57776,5.19816 5.69864,9.3822 10.83271,10.9987 2.13264,0.67148 6.84685,0.60055 9.23992,-0.13904 z m 50.56,-0.32 c 6.18736,-1.91221 10.4952,-7.33064 11.03595,-13.88108 0.79977,-9.688 -7.38257,-17.87229 -17.05264,-17.05674 -6.5612,0.55336 -11.96951,4.85476 -13.88108,11.04005 -0.75338,2.4377 -0.83876,6.85081 -0.17486,9.03811 1.57776,5.19816 5.69864,9.3822 10.83271,10.9987 2.13264,0.67148 6.84685,0.60055 9.23992,-0.13904 z M 232.64,83.2 v -16 h -20.48 -20.48 v 16 16.000001 h 20.48 20.48 z m 50.24,0 v -16 H 262.4 241.92 v 16 16.000001 h 20.48 20.48 z"
       id="path932" />
  </g>
</svg>
